<?xml version="1.0" encoding="utf-8" standalone="no"?>
<!DOCTYPE svg PUBLIC "-//W3C//DTD SVG 1.1//EN"
  "http://www.w3.org/Graphics/SVG/1.1/DTD/svg11.dtd">
<!-- Created with matplotlib (https://matplotlib.org/) -->
<svg height="345.6pt" version="1.1" viewBox="0 0 460.8 345.6" width="460.8pt" xmlns="http://www.w3.org/2000/svg" xmlns:xlink="http://www.w3.org/1999/xlink">
 <defs>
  <style type="text/css">
*{stroke-linecap:butt;stroke-linejoin:round;}
  </style>
 </defs>
 <g id="figure_1">
  <g id="patch_1">
   <path d="M 0 345.6 
L 460.8 345.6 
L 460.8 0 
L 0 0 
z
" style="fill:#ffffff;"/>
  </g>
  <g id="axes_1">
   <g id="patch_2">
    <path d="M 57.6 307.584 
L 414.72 307.584 
L 414.72 41.472 
L 57.6 41.472 
z
" style="fill:#ffffff;"/>
   </g>
   <g id="matplotlib.axis_1">
    <g id="xtick_1">
     <g id="line2d_1">
      <defs>
       <path d="M 0 0 
L 0 3.5 
" id="m3c4685b5e1" style="stroke:#000000;stroke-width:0.8;"/>
      </defs>
      <g>
       <use style="stroke:#000000;stroke-width:0.8;" x="57.6" xlink:href="#m3c4685b5e1" y="307.584"/>
      </g>
     </g>
     <g id="text_1">
      <!-- 0.0 -->
      <defs>
       <path d="M 31.78125 66.40625 
Q 24.171875 66.40625 20.328125 58.90625 
Q 16.5 51.421875 16.5 36.375 
Q 16.5 21.390625 20.328125 13.890625 
Q 24.171875 6.390625 31.78125 6.390625 
Q 39.453125 6.390625 43.28125 13.890625 
Q 47.125 21.390625 47.125 36.375 
Q 47.125 51.421875 43.28125 58.90625 
Q 39.453125 66.40625 31.78125 66.40625 
z
M 31.78125 74.21875 
Q 44.046875 74.21875 50.515625 64.515625 
Q 56.984375 54.828125 56.984375 36.375 
Q 56.984375 17.96875 50.515625 8.265625 
Q 44.046875 -1.421875 31.78125 -1.421875 
Q 19.53125 -1.421875 13.0625 8.265625 
Q 6.59375 17.96875 6.59375 36.375 
Q 6.59375 54.828125 13.0625 64.515625 
Q 19.53125 74.21875 31.78125 74.21875 
z
" id="DejaVuSans-48"/>
       <path d="M 10.6875 12.40625 
L 21 12.40625 
L 21 0 
L 10.6875 0 
z
" id="DejaVuSans-46"/>
      </defs>
      <g transform="translate(49.648438 322.182437)scale(0.1 -0.1)">
       <use xlink:href="#DejaVuSans-48"/>
       <use x="63.623047" xlink:href="#DejaVuSans-46"/>
       <use x="95.410156" xlink:href="#DejaVuSans-48"/>
      </g>
     </g>
    </g>
    <g id="xtick_2">
     <g id="line2d_2">
      <g>
       <use style="stroke:#000000;stroke-width:0.8;" x="129.024" xlink:href="#m3c4685b5e1" y="307.584"/>
      </g>
     </g>
     <g id="text_2">
      <!-- 0.2 -->
      <defs>
       <path d="M 19.1875 8.296875 
L 53.609375 8.296875 
L 53.609375 0 
L 7.328125 0 
L 7.328125 8.296875 
Q 12.9375 14.109375 22.625 23.890625 
Q 32.328125 33.6875 34.8125 36.53125 
Q 39.546875 41.84375 41.421875 45.53125 
Q 43.3125 49.21875 43.3125 52.78125 
Q 43.3125 58.59375 39.234375 62.25 
Q 35.15625 65.921875 28.609375 65.921875 
Q 23.96875 65.921875 18.8125 64.3125 
Q 13.671875 62.703125 7.8125 59.421875 
L 7.8125 69.390625 
Q 13.765625 71.78125 18.9375 73 
Q 24.125 74.21875 28.421875 74.21875 
Q 39.75 74.21875 46.484375 68.546875 
Q 53.21875 62.890625 53.21875 53.421875 
Q 53.21875 48.921875 51.53125 44.890625 
Q 49.859375 40.875 45.40625 35.40625 
Q 44.1875 33.984375 37.640625 27.21875 
Q 31.109375 20.453125 19.1875 8.296875 
z
" id="DejaVuSans-50"/>
      </defs>
      <g transform="translate(121.072438 322.182437)scale(0.1 -0.1)">
       <use xlink:href="#DejaVuSans-48"/>
       <use x="63.623047" xlink:href="#DejaVuSans-46"/>
       <use x="95.410156" xlink:href="#DejaVuSans-50"/>
      </g>
     </g>
    </g>
    <g id="xtick_3">
     <g id="line2d_3">
      <g>
       <use style="stroke:#000000;stroke-width:0.8;" x="200.448" xlink:href="#m3c4685b5e1" y="307.584"/>
      </g>
     </g>
     <g id="text_3">
      <!-- 0.4 -->
      <defs>
       <path d="M 37.796875 64.3125 
L 12.890625 25.390625 
L 37.796875 25.390625 
z
M 35.203125 72.90625 
L 47.609375 72.90625 
L 47.609375 25.390625 
L 58.015625 25.390625 
L 58.015625 17.1875 
L 47.609375 17.1875 
L 47.609375 0 
L 37.796875 0 
L 37.796875 17.1875 
L 4.890625 17.1875 
L 4.890625 26.703125 
z
" id="DejaVuSans-52"/>
      </defs>
      <g transform="translate(192.496438 322.182437)scale(0.1 -0.1)">
       <use xlink:href="#DejaVuSans-48"/>
       <use x="63.623047" xlink:href="#DejaVuSans-46"/>
       <use x="95.410156" xlink:href="#DejaVuSans-52"/>
      </g>
     </g>
    </g>
    <g id="xtick_4">
     <g id="line2d_4">
      <g>
       <use style="stroke:#000000;stroke-width:0.8;" x="271.872" xlink:href="#m3c4685b5e1" y="307.584"/>
      </g>
     </g>
     <g id="text_4">
      <!-- 0.6 -->
      <defs>
       <path d="M 33.015625 40.375 
Q 26.375 40.375 22.484375 35.828125 
Q 18.609375 31.296875 18.609375 23.390625 
Q 18.609375 15.53125 22.484375 10.953125 
Q 26.375 6.390625 33.015625 6.390625 
Q 39.65625 6.390625 43.53125 10.953125 
Q 47.40625 15.53125 47.40625 23.390625 
Q 47.40625 31.296875 43.53125 35.828125 
Q 39.65625 40.375 33.015625 40.375 
z
M 52.59375 71.296875 
L 52.59375 62.3125 
Q 48.875 64.0625 45.09375 64.984375 
Q 41.3125 65.921875 37.59375 65.921875 
Q 27.828125 65.921875 22.671875 59.328125 
Q 17.53125 52.734375 16.796875 39.40625 
Q 19.671875 43.65625 24.015625 45.921875 
Q 28.375 48.1875 33.59375 48.1875 
Q 44.578125 48.1875 50.953125 41.515625 
Q 57.328125 34.859375 57.328125 23.390625 
Q 57.328125 12.15625 50.6875 5.359375 
Q 44.046875 -1.421875 33.015625 -1.421875 
Q 20.359375 -1.421875 13.671875 8.265625 
Q 6.984375 17.96875 6.984375 36.375 
Q 6.984375 53.65625 15.1875 63.9375 
Q 23.390625 74.21875 37.203125 74.21875 
Q 40.921875 74.21875 44.703125 73.484375 
Q 48.484375 72.75 52.59375 71.296875 
z
" id="DejaVuSans-54"/>
      </defs>
      <g transform="translate(263.920438 322.182437)scale(0.1 -0.1)">
       <use xlink:href="#DejaVuSans-48"/>
       <use x="63.623047" xlink:href="#DejaVuSans-46"/>
       <use x="95.410156" xlink:href="#DejaVuSans-54"/>
      </g>
     </g>
    </g>
    <g id="xtick_5">
     <g id="line2d_5">
      <g>
       <use style="stroke:#000000;stroke-width:0.8;" x="343.296" xlink:href="#m3c4685b5e1" y="307.584"/>
      </g>
     </g>
     <g id="text_5">
      <!-- 0.8 -->
      <defs>
       <path d="M 31.78125 34.625 
Q 24.75 34.625 20.71875 30.859375 
Q 16.703125 27.09375 16.703125 20.515625 
Q 16.703125 13.921875 20.71875 10.15625 
Q 24.75 6.390625 31.78125 6.390625 
Q 38.8125 6.390625 42.859375 10.171875 
Q 46.921875 13.96875 46.921875 20.515625 
Q 46.921875 27.09375 42.890625 30.859375 
Q 38.875 34.625 31.78125 34.625 
z
M 21.921875 38.8125 
Q 15.578125 40.375 12.03125 44.71875 
Q 8.5 49.078125 8.5 55.328125 
Q 8.5 64.0625 14.71875 69.140625 
Q 20.953125 74.21875 31.78125 74.21875 
Q 42.671875 74.21875 48.875 69.140625 
Q 55.078125 64.0625 55.078125 55.328125 
Q 55.078125 49.078125 51.53125 44.71875 
Q 48 40.375 41.703125 38.8125 
Q 48.828125 37.15625 52.796875 32.3125 
Q 56.78125 27.484375 56.78125 20.515625 
Q 56.78125 9.90625 50.3125 4.234375 
Q 43.84375 -1.421875 31.78125 -1.421875 
Q 19.734375 -1.421875 13.25 4.234375 
Q 6.78125 9.90625 6.78125 20.515625 
Q 6.78125 27.484375 10.78125 32.3125 
Q 14.796875 37.15625 21.921875 38.8125 
z
M 18.3125 54.390625 
Q 18.3125 48.734375 21.84375 45.5625 
Q 25.390625 42.390625 31.78125 42.390625 
Q 38.140625 42.390625 41.71875 45.5625 
Q 45.3125 48.734375 45.3125 54.390625 
Q 45.3125 60.0625 41.71875 63.234375 
Q 38.140625 66.40625 31.78125 66.40625 
Q 25.390625 66.40625 21.84375 63.234375 
Q 18.3125 60.0625 18.3125 54.390625 
z
" id="DejaVuSans-56"/>
      </defs>
      <g transform="translate(335.344438 322.182437)scale(0.1 -0.1)">
       <use xlink:href="#DejaVuSans-48"/>
       <use x="63.623047" xlink:href="#DejaVuSans-46"/>
       <use x="95.410156" xlink:href="#DejaVuSans-56"/>
      </g>
     </g>
    </g>
    <g id="xtick_6">
     <g id="line2d_6">
      <g>
       <use style="stroke:#000000;stroke-width:0.8;" x="414.72" xlink:href="#m3c4685b5e1" y="307.584"/>
      </g>
     </g>
     <g id="text_6">
      <!-- 1.0 -->
      <defs>
       <path d="M 12.40625 8.296875 
L 28.515625 8.296875 
L 28.515625 63.921875 
L 10.984375 60.40625 
L 10.984375 69.390625 
L 28.421875 72.90625 
L 38.28125 72.90625 
L 38.28125 8.296875 
L 54.390625 8.296875 
L 54.390625 0 
L 12.40625 0 
z
" id="DejaVuSans-49"/>
      </defs>
      <g transform="translate(406.768438 322.182437)scale(0.1 -0.1)">
       <use xlink:href="#DejaVuSans-49"/>
       <use x="63.623047" xlink:href="#DejaVuSans-46"/>
       <use x="95.410156" xlink:href="#DejaVuSans-48"/>
      </g>
     </g>
    </g>
    <g id="text_7">
     <!-- 假阳率 -->
     <defs>
      <path d="M 33.59375 -9.765625 
Q 33.984375 8.59375 33.984375 15.234375 
L 33.984375 57.03125 
Q 33.984375 62.5 33.59375 78.125 
L 39.0625 74.609375 
L 53.90625 74.609375 
L 57.421875 78.125 
L 62.890625 73.4375 
L 59.375 71.09375 
L 59.375 57.421875 
Q 59.375 53.515625 59.765625 50.390625 
L 54.296875 47.65625 
L 54.296875 51.5625 
L 39.0625 51.5625 
L 39.0625 37.109375 
L 48.046875 37.109375 
L 51.5625 40.625 
L 57.421875 34.765625 
L 39.0625 34.765625 
L 39.0625 19.140625 
L 50 19.140625 
L 53.515625 22.65625 
L 59.375 16.796875 
L 39.0625 16.796875 
L 39.0625 -7.03125 
z
M 39.0625 72.265625 
L 39.0625 53.90625 
L 54.296875 53.90625 
L 54.296875 72.265625 
z
M 64.453125 35.546875 
Q 67.96875 21.09375 73.4375 12.890625 
Q 79.296875 23.828125 82.8125 35.546875 
z
M 87.890625 33.984375 
Q 82.421875 18.359375 76.171875 8.984375 
Q 83.984375 -0.390625 96.09375 -3.515625 
L 96.09375 -4.6875 
Q 91.015625 -5.078125 89.0625 -8.59375 
Q 80.078125 -3.515625 73.4375 5.46875 
Q 62.890625 -4.6875 44.921875 -9.765625 
L 44.140625 -8.203125 
Q 60.15625 -2.734375 70.703125 8.984375 
Q 65.234375 20.3125 62.5 35.546875 
L 60.9375 34.765625 
L 57.8125 37.890625 
L 82.421875 37.890625 
L 85.9375 41.40625 
L 91.40625 36.328125 
z
M 88.28125 70.703125 
L 88.28125 58.203125 
Q 88.28125 53.90625 88.671875 49.609375 
L 83.203125 47.265625 
L 83.203125 51.5625 
L 72.65625 51.5625 
L 66.796875 50.78125 
L 63.671875 53.90625 
L 83.203125 53.90625 
L 83.203125 72.265625 
L 74.21875 72.265625 
L 67.96875 71.09375 
L 64.453125 74.609375 
L 82.8125 74.609375 
L 86.328125 78.125 
L 91.796875 73.046875 
z
M 21.484375 55.078125 
L 25.78125 53.125 
L 23.046875 50.78125 
L 23.046875 13.28125 
Q 23.046875 2.734375 23.4375 -7.8125 
L 17.578125 -10.546875 
Q 17.96875 7.8125 17.96875 13.671875 
L 17.96875 47.65625 
Q 11.71875 37.109375 4.6875 29.6875 
L 3.90625 30.859375 
Q 12.890625 44.921875 17.765625 58.984375 
Q 22.65625 73.046875 24.21875 80.859375 
L 32.03125 76.171875 
L 28.515625 73.828125 
Q 26.171875 67.578125 21.484375 55.078125 
z
" id="SimSun-20551"/>
      <path d="M 52.34375 67.578125 
L 52.34375 39.453125 
L 80.859375 39.453125 
L 80.859375 67.578125 
z
M 52.34375 37.109375 
L 52.34375 7.421875 
L 80.859375 7.421875 
L 80.859375 37.109375 
z
M 52.34375 5.078125 
L 52.34375 -3.515625 
L 46.875 -5.859375 
Q 47.265625 2.734375 47.265625 34.375 
Q 47.265625 66.015625 46.875 73.828125 
L 52.34375 69.921875 
L 80.46875 69.921875 
L 83.203125 73.828125 
L 89.0625 69.140625 
L 85.9375 66.40625 
L 85.9375 14.0625 
Q 85.9375 1.5625 86.328125 -3.125 
L 80.859375 -5.46875 
L 80.859375 5.078125 
z
M 33.59375 71.484375 
L 16.796875 71.484375 
L 16.796875 -6.640625 
L 11.328125 -9.765625 
Q 11.71875 1.5625 11.71875 36.328125 
Q 11.71875 71.09375 11.328125 78.125 
L 16.796875 73.828125 
L 33.59375 73.828125 
L 36.71875 77.734375 
L 43.359375 71.875 
Q 39.0625 69.921875 35.15625 62.6875 
Q 31.25 55.46875 27.34375 47.65625 
Q 33.59375 42.578125 37.296875 38.078125 
Q 41.015625 33.59375 41.015625 27.921875 
Q 41.015625 22.265625 37.890625 17.765625 
Q 34.765625 13.28125 27.734375 11.328125 
Q 26.953125 16.40625 19.53125 19.140625 
L 19.53125 20.703125 
Q 23.046875 19.921875 26.953125 19.921875 
Q 31.640625 19.921875 33.984375 22.65625 
Q 36.328125 25.390625 35.546875 31.046875 
Q 34.765625 36.71875 25 47.65625 
z
" id="SimSun-38451"/>
      <path d="M 13.671875 58.203125 
L 14.453125 59.375 
Q 21.484375 57.03125 24.21875 55.078125 
Q 26.953125 53.125 26.953125 50.78125 
Q 26.953125 49.609375 25.96875 47.265625 
Q 25 44.921875 24.21875 44.921875 
Q 23.4375 44.921875 22.265625 47.65625 
Q 19.921875 51.953125 13.671875 58.203125 
z
M 8.59375 28.90625 
Q 13.671875 30.078125 31.25 40.234375 
L 32.03125 39.0625 
Q 26.171875 34.765625 20.890625 30.265625 
Q 15.625 25.78125 13.671875 22.265625 
z
M 81.25 53.90625 
Q 75 49.21875 66.796875 43.75 
L 66.015625 44.921875 
Q 74.609375 53.125 78.90625 61.328125 
L 85.15625 55.078125 
z
M 67.578125 39.0625 
L 67.96875 40.234375 
Q 81.640625 36.71875 83.984375 34.5625 
Q 86.328125 32.421875 86.328125 29.6875 
Q 86.328125 27.734375 85.734375 25.96875 
Q 85.15625 24.21875 84.375 24.21875 
Q 83.203125 24.21875 81.25 28.125 
Q 77.734375 33.59375 67.578125 39.0625 
z
M 49.21875 60.9375 
Q 39.0625 51.5625 35.9375 49.21875 
Q 43.75 49.21875 53.125 49.609375 
Q 57.8125 54.6875 60.15625 59.765625 
L 66.40625 53.90625 
Q 63.28125 53.125 53.90625 44.140625 
Q 44.53125 35.15625 38.671875 30.46875 
Q 49.21875 30.859375 60.15625 31.25 
Q 58.59375 33.984375 55.46875 38.28125 
L 56.25 39.0625 
Q 63.28125 35.15625 65.625 32.8125 
Q 67.96875 30.46875 67.96875 28.90625 
Q 67.96875 27.734375 66.40625 25.390625 
Q 64.84375 23.046875 64.0625 23.046875 
Q 63.671875 23.046875 63.28125 24.21875 
Q 62.5 26.5625 60.9375 29.6875 
Q 57.03125 29.296875 48.046875 28.125 
L 54.6875 24.21875 
L 51.953125 22.265625 
L 51.953125 15.234375 
L 83.203125 15.234375 
L 88.28125 20.3125 
L 95.3125 12.890625 
L 51.953125 12.890625 
Q 51.953125 -4.296875 52.34375 -8.203125 
L 46.484375 -10.15625 
Q 46.875 0 46.875 12.890625 
L 17.578125 12.890625 
Q 12.5 12.890625 8.203125 11.71875 
L 4.6875 15.234375 
L 46.875 15.234375 
L 46.875 27.734375 
Q 38.28125 26.5625 34.375 23.828125 
L 30.46875 30.46875 
Q 35.546875 30.46875 41.796875 36.71875 
Q 48.046875 42.96875 51.953125 47.65625 
Q 37.5 46.09375 33.59375 43.359375 
L 30.46875 49.609375 
Q 33.59375 49.21875 38.671875 55.859375 
Q 43.75 62.5 45.3125 66.015625 
L 22.65625 66.015625 
Q 17.578125 66.015625 13.28125 64.84375 
L 9.765625 68.359375 
L 48.4375 68.359375 
Q 47.65625 75 41.796875 81.25 
L 42.578125 82.03125 
Q 50.390625 78.90625 52.140625 76.75 
Q 53.90625 74.609375 53.90625 73.4375 
Q 53.90625 71.09375 50.78125 68.359375 
L 78.515625 68.359375 
L 83.59375 73.046875 
L 90.234375 66.015625 
L 47.65625 66.015625 
L 52.734375 61.71875 
z
" id="SimSun-29575"/>
     </defs>
     <g transform="translate(221.16 336.230875)scale(0.1 -0.1)">
      <use xlink:href="#SimSun-20551"/>
      <use x="100" xlink:href="#SimSun-38451"/>
      <use x="200" xlink:href="#SimSun-29575"/>
     </g>
    </g>
   </g>
   <g id="matplotlib.axis_2">
    <g id="ytick_1">
     <g id="line2d_7">
      <defs>
       <path d="M 0 0 
L -3.5 0 
" id="me09b74eb59" style="stroke:#000000;stroke-width:0.8;"/>
      </defs>
      <g>
       <use style="stroke:#000000;stroke-width:0.8;" x="57.6" xlink:href="#me09b74eb59" y="307.584"/>
      </g>
     </g>
     <g id="text_8">
      <!-- 0.0 -->
      <g transform="translate(34.696875 311.383219)scale(0.1 -0.1)">
       <use xlink:href="#DejaVuSans-48"/>
       <use x="63.623047" xlink:href="#DejaVuSans-46"/>
       <use x="95.410156" xlink:href="#DejaVuSans-48"/>
      </g>
     </g>
    </g>
    <g id="ytick_2">
     <g id="line2d_8">
      <g>
       <use style="stroke:#000000;stroke-width:0.8;" x="57.6" xlink:href="#me09b74eb59" y="256.896"/>
      </g>
     </g>
     <g id="text_9">
      <!-- 0.2 -->
      <g transform="translate(34.696875 260.695219)scale(0.1 -0.1)">
       <use xlink:href="#DejaVuSans-48"/>
       <use x="63.623047" xlink:href="#DejaVuSans-46"/>
       <use x="95.410156" xlink:href="#DejaVuSans-50"/>
      </g>
     </g>
    </g>
    <g id="ytick_3">
     <g id="line2d_9">
      <g>
       <use style="stroke:#000000;stroke-width:0.8;" x="57.6" xlink:href="#me09b74eb59" y="206.208"/>
      </g>
     </g>
     <g id="text_10">
      <!-- 0.4 -->
      <g transform="translate(34.696875 210.007219)scale(0.1 -0.1)">
       <use xlink:href="#DejaVuSans-48"/>
       <use x="63.623047" xlink:href="#DejaVuSans-46"/>
       <use x="95.410156" xlink:href="#DejaVuSans-52"/>
      </g>
     </g>
    </g>
    <g id="ytick_4">
     <g id="line2d_10">
      <g>
       <use style="stroke:#000000;stroke-width:0.8;" x="57.6" xlink:href="#me09b74eb59" y="155.52"/>
      </g>
     </g>
     <g id="text_11">
      <!-- 0.6 -->
      <g transform="translate(34.696875 159.319219)scale(0.1 -0.1)">
       <use xlink:href="#DejaVuSans-48"/>
       <use x="63.623047" xlink:href="#DejaVuSans-46"/>
       <use x="95.410156" xlink:href="#DejaVuSans-54"/>
      </g>
     </g>
    </g>
    <g id="ytick_5">
     <g id="line2d_11">
      <g>
       <use style="stroke:#000000;stroke-width:0.8;" x="57.6" xlink:href="#me09b74eb59" y="104.832"/>
      </g>
     </g>
     <g id="text_12">
      <!-- 0.8 -->
      <g transform="translate(34.696875 108.631219)scale(0.1 -0.1)">
       <use xlink:href="#DejaVuSans-48"/>
       <use x="63.623047" xlink:href="#DejaVuSans-46"/>
       <use x="95.410156" xlink:href="#DejaVuSans-56"/>
      </g>
     </g>
    </g>
    <g id="ytick_6">
     <g id="line2d_12">
      <g>
       <use style="stroke:#000000;stroke-width:0.8;" x="57.6" xlink:href="#me09b74eb59" y="54.144"/>
      </g>
     </g>
     <g id="text_13">
      <!-- 1.0 -->
      <g transform="translate(34.696875 57.943219)scale(0.1 -0.1)">
       <use xlink:href="#DejaVuSans-49"/>
       <use x="63.623047" xlink:href="#DejaVuSans-46"/>
       <use x="95.410156" xlink:href="#DejaVuSans-48"/>
      </g>
     </g>
    </g>
    <g id="text_14">
     <!-- 真阳率 -->
     <defs>
      <path d="M 32.03125 53.90625 
L 32.03125 45.3125 
L 67.1875 45.3125 
L 67.1875 53.90625 
z
M 32.03125 42.96875 
L 32.03125 34.765625 
L 67.1875 34.765625 
L 67.1875 42.96875 
z
M 32.03125 32.421875 
L 32.03125 24.21875 
L 67.1875 24.21875 
L 67.1875 32.421875 
z
M 32.03125 21.875 
L 32.03125 13.671875 
L 67.1875 13.671875 
L 67.1875 21.875 
z
M 44.921875 56.25 
L 45.703125 67.578125 
L 23.828125 67.578125 
Q 18.75 67.578125 14.453125 66.40625 
L 10.9375 69.921875 
L 46.09375 69.921875 
Q 46.484375 75.390625 46.484375 82.421875 
L 55.46875 78.515625 
L 52.734375 76.953125 
L 51.5625 69.921875 
L 78.125 69.921875 
L 83.203125 75.390625 
L 90.234375 67.578125 
L 51.171875 67.578125 
L 50 56.25 
L 66.796875 56.25 
L 69.53125 60.546875 
L 75.78125 55.859375 
L 72.65625 52.734375 
L 72.65625 13.671875 
L 82.8125 13.671875 
L 88.671875 19.140625 
L 95.703125 11.328125 
L 17.96875 11.328125 
Q 12.890625 11.328125 8.59375 10.15625 
L 5.078125 13.671875 
L 26.5625 13.671875 
Q 26.5625 50 26.171875 58.984375 
L 32.03125 56.25 
z
M 37.890625 11.328125 
L 44.140625 5.46875 
L 40.234375 4.6875 
Q 23.4375 -6.640625 12.5 -10.15625 
L 12.109375 -8.984375 
Q 30.46875 1.953125 37.890625 11.328125 
z
M 59.375 10.9375 
Q 71.484375 5.859375 77.53125 3.125 
Q 83.59375 0.390625 84.375 -1.75 
Q 85.15625 -3.90625 85.15625 -5.078125 
Q 85.15625 -6.25 84.375 -8.203125 
Q 83.59375 -10.15625 83.203125 -10.15625 
Q 82.03125 -10.15625 79.6875 -7.03125 
Q 76.171875 -2.34375 58.59375 9.765625 
z
" id="SimSun-30495"/>
     </defs>
     <g transform="translate(29.407812 189.528)rotate(-90)scale(0.1 -0.1)">
      <use xlink:href="#SimSun-30495"/>
      <use x="100" xlink:href="#SimSun-38451"/>
      <use x="200" xlink:href="#SimSun-29575"/>
     </g>
    </g>
   </g>
   <g id="line2d_13">
    <path clip-path="url(#pad78435d0f)" d="M 57.6 307.576819 
L 57.701187 305.085002 
L 57.711306 305.085002 
L 57.711306 304.984468 
L 57.812493 299.562792 
L 57.832731 298.930862 
L 57.933918 293.494824 
L 57.944036 293.150135 
L 58.045224 286.6154 
L 58.105936 284.690885 
L 58.207123 280.791587 
L 58.267836 278.723451 
L 58.369023 276.597867 
L 58.449973 274.989317 
L 58.55116 271.765035 
L 58.591635 271.341355 
L 58.692822 269.115236 
L 58.713059 269.057788 
L 58.713059 269.029064 
L 58.814246 266.077662 
L 58.834484 265.740153 
L 58.935671 262.264536 
L 58.955909 262.077829 
L 59.461845 254.717276 
L 59.492201 254.695733 
L 59.593388 253.690389 
L 59.674338 252.663502 
L 59.775525 251.327831 
L 59.785644 251.069314 
L 59.886831 250.315306 
L 59.917187 250.099876 
L 59.977899 249.396135 
L 60.079087 248.642127 
L 60.392767 245.647639 
L 60.493954 244.671019 
L 60.807634 242.8614 
L 60.878465 242.588521 
L 60.91894 242.251013 
L 61.050484 240.549109 
L 61.131433 239.608395 
L 61.16179 239.313973 
L 61.242739 238.80412 
L 61.343927 238.03575 
L 61.445114 237.152483 
L 61.566538 236.542096 
L 61.829625 234.172357 
L 61.859981 234.136452 
L 62.284968 231.285584 
L 62.34568 231.098877 
L 62.588529 229.289258 
L 62.82126 228.420354 
L 63.246246 225.591029 
L 63.317077 225.368417 
L 63.509333 224.664677 
L 63.600401 224.298444 
L 63.650995 224.039927 
L 65.58367 214.812307 
L 65.765807 214.55379 
L 65.866995 214.27373 
L 66.079488 213.663343 
L 66.160437 213.50536 
L 66.332456 212.894973 
L 66.372931 212.794438 
L 66.808036 211.257698 
L 66.959816 210.77657 
L 67.061004 210.338527 
L 67.192547 210.065648 
L 67.283615 209.72814 
L 67.597296 208.923865 
L 67.819908 208.349382 
L 67.910976 208.047779 
L 69.398428 203.739163 
L 69.489497 203.473465 
L 69.580565 203.179043 
L 69.631159 203.078508 
L 69.712108 202.891802 
L 70.865642 200.148649 
L 71.108492 199.703425 
L 71.735852 197.85072 
L 71.826921 197.678376 
L 72.059651 196.981816 
L 75.034555 189.492004 
L 75.07503 189.441737 
L 75.86429 188.019894 
L 76.309514 187.316153 
L 76.50177 186.885291 
L 76.562482 186.791938 
L 76.714263 186.497516 
L 76.764856 186.339533 
L 77.058299 185.887129 
L 77.220199 185.714784 
L 77.37198 185.370095 
L 77.938628 184.328846 
L 78.029697 184.278579 
L 78.151121 183.897984 
L 78.697532 183.194243 
L 78.940381 182.662847 
L 79.658811 181.592874 
L 80.60997 179.804798 
L 80.923651 179.503195 
L 82.390865 177.140637 
L 82.522408 176.975474 
L 82.886682 176.25019 
L 83.77713 175.12995 
L 83.949148 174.720631 
L 84.222353 174.282588 
L 84.364016 174.059977 
L 84.505678 173.973804 
L 84.718171 173.463951 
L 85.193751 172.796116 
L 85.66933 172.372435 
L 85.740162 172.178547 
L 86.256216 171.654332 
L 86.630609 171.245014 
L 86.832983 171.036764 
L 87.288326 170.397653 
L 87.935924 169.686731 
L 88.168654 169.557472 
L 88.310316 169.133792 
L 88.553166 168.860913 
L 88.968033 168.257706 
L 89.008508 168.14281 
L 89.028746 168.14281 
L 89.615631 167.123104 
L 89.747175 167.029751 
L 89.757294 167.029751 
L 89.909074 166.764053 
L 90.000143 166.749691 
L 90.232873 166.333191 
L 90.506079 165.708442 
L 90.981659 165.198589 
L 91.851869 163.913185 
L 91.942937 163.87728 
L 92.772672 162.757039 
L 93.045878 162.469798 
L 93.329202 161.902497 
L 93.42027 161.873773 
L 94.513092 160.645817 
L 94.654754 160.416024 
L 94.857129 160.17187 
L 95.32259 159.805637 
L 98.034407 157.213286 
L 98.064763 157.040942 
L 98.823667 156.04996 
L 99.653402 155.310314 
L 100.240288 154.714289 
L 100.311119 154.714289 
L 101.201566 153.74485 
L 101.687265 152.954937 
L 102.142607 152.559981 
L 102.415813 152.272739 
L 102.689018 151.992679 
L 103.711009 150.707275 
L 103.832434 150.685732 
L 104.378845 150.147155 
L 104.915137 149.644483 
L 105.765109 149.170536 
L 105.967484 148.904838 
L 106.443063 148.603234 
L 106.736506 148.043114 
L 107.029949 147.763054 
L 107.252561 147.461451 
L 107.869803 146.6859 
L 108.13289 146.255038 
L 108.831082 145.824177 
L 109.073931 145.551298 
L 111.117912 143.799127 
L 112.058953 142.994852 
L 112.281565 142.520904 
L 113.58688 141.522741 
L 113.738661 141.336035 
L 114.102935 140.969802 
L 114.568396 140.661018 
L 116.065967 139.634131 
L 116.19751 139.325347 
L 117.219501 138.679055 
L 117.452231 138.65033 
L 118.717071 137.494185 
L 119.020633 137.127953 
L 119.354551 136.876617 
L 119.789656 136.488841 
L 124.464505 133.300465 
L 125.061509 132.725983 
L 125.253765 132.675716 
L 125.76982 132.345388 
L 126.508486 131.971975 
L 126.680504 131.778087 
L 126.933472 131.72782 
L 127.550714 131.045622 
L 127.560833 130.923545 
L 128.350093 130.061822 
L 130.444668 128.675883 
L 131.011317 128.115763 
L 135.251061 125.530593 
L 135.352248 125.451602 
L 135.949252 125.114094 
L 136.222458 124.819672 
L 136.8397 124.46062 
L 137.507535 124.008216 
L 137.902165 123.893319 
L 138.7319 123.189578 
L 139.480686 122.787441 
L 139.794366 122.435571 
L 140.209234 122.284769 
L 140.826476 121.861088 
L 141.433599 121.530761 
L 141.969891 121.10708 
L 143.963279 120.05865 
L 144.843608 119.692418 
L 145.997142 118.873781 
L 147.332813 118.292118 
L 148.031004 117.976153 
L 148.233379 117.703274 
L 149.154182 117.085705 
L 149.275607 116.906179 
L 149.639881 116.741016 
L 151.22852 115.958284 
L 153.383808 114.46463 
L 153.414164 114.46463 
L 153.565945 114.32101 
L 155.670638 113.301304 
L 155.89325 113.071511 
L 158.048538 111.915365 
L 158.58483 111.793288 
L 158.908629 111.462961 
L 160.254419 110.888479 
L 160.922254 110.313996 
L 161.519259 110.134471 
L 165.091167 108.195593 
L 166.700044 107.585206 
L 166.791112 107.484672 
L 168.319039 106.666034 
L 168.7845 106.587043 
L 169.553523 106.184906 
L 170.21124 106.012561 
L 170.828482 105.754044 
L 171.051093 105.538613 
L 175.088463 103.513563 
L 175.685467 103.197598 
L 176.879476 102.501039 
L 176.879476 102.37178 
L 180.582928 100.76323 
L 181.068627 100.540618 
L 183.739969 99.563998 
L 184.377448 99.262395 
L 188.546361 97.883638 
L 188.708261 97.883638 
L 189.244553 97.732836 
L 190.05405 97.280432 
L 191.511146 96.598234 
L 191.87542 96.526424 
L 192.502781 96.239183 
L 192.856936 96.210459 
L 202.206634 92.698936 
L 202.500077 92.641488 
L 208.024898 90.716973 
L 209.643893 90.343559 
L 211.181939 89.711629 
L 213.155089 89.065336 
L 214.946103 88.526759 
L 215.7556 88.074354 
L 216.666285 87.937915 
L 217.425189 87.478329 
L 219.519764 86.731502 
L 221.300659 86.22883 
L 221.978613 86.178563 
L 223.708915 85.546633 
L 226.572512 84.720815 
L 227.817115 84.383306 
L 229.051599 83.923721 
L 233.271105 82.825023 
L 236.08411 82.336714 
L 238.016785 81.740688 
L 238.634027 81.302646 
L 241.011926 80.742525 
L 242.145223 80.577362 
L 249.359871 78.379967 
L 249.966994 78.351243 
L 250.371743 78.171718 
L 253.518665 77.295632 
L 255.198372 76.886314 
L 256.078701 76.814503 
L 262.767175 74.947436 
L 264.973056 74.588385 
L 265.013531 74.588385 
L 266.480746 74.27242 
L 268.696746 73.554317 
L 271.924617 73.008559 
L 272.643046 72.922387 
L 273.412069 72.635146 
L 275.830443 72.060663 
L 277.783356 71.479 
L 278.016087 71.471819 
L 287.527684 69.360597 
L 288.974661 69.231339 
L 292.000159 68.391158 
L 294.823282 67.953116 
L 295.966697 67.874124 
L 300.176085 67.091392 
L 302.483153 66.682074 
L 307.168121 66.057324 
L 310.932285 65.181239 
L 314.989891 64.70011 
L 315.941051 64.642662 
L 332.100648 62.208294 
L 337.918912 61.626631 
L 340.539661 61.325027 
L 344.324062 60.858261 
L 351.569066 59.982175 
L 356.395695 59.493865 
L 360.443184 58.89784 
L 364.642453 58.54597 
L 368.872078 58.072022 
L 373.101703 57.770419 
L 376.299219 57.540626 
L 378.758068 57.239023 
L 388.249427 56.506558 
L 398.074705 55.652016 
L 400.078212 55.537119 
L 403.285846 55.170887 
L 405.461371 55.063172 
L 413.495635 54.244534 
L 414.72 54.144 
L 414.72 54.144 
" style="fill:none;stroke:#ff8c00;stroke-linecap:square;stroke-width:2;"/>
   </g>
   <g id="line2d_14">
    <path clip-path="url(#pad78435d0f)" d="M 57.6 307.584 
L 414.72 54.144 
" style="fill:none;stroke:#000080;stroke-dasharray:7.4,3.2;stroke-dashoffset:0;stroke-width:2;"/>
   </g>
   <g id="patch_3">
    <path d="M 57.6 307.584 
L 57.6 41.472 
" style="fill:none;stroke:#000000;stroke-linecap:square;stroke-linejoin:miter;stroke-width:0.8;"/>
   </g>
   <g id="patch_4">
    <path d="M 414.72 307.584 
L 414.72 41.472 
" style="fill:none;stroke:#000000;stroke-linecap:square;stroke-linejoin:miter;stroke-width:0.8;"/>
   </g>
   <g id="patch_5">
    <path d="M 57.6 307.584 
L 414.72 307.584 
" style="fill:none;stroke:#000000;stroke-linecap:square;stroke-linejoin:miter;stroke-width:0.8;"/>
   </g>
   <g id="patch_6">
    <path d="M 57.6 41.472 
L 414.72 41.472 
" style="fill:none;stroke:#000000;stroke-linecap:square;stroke-linejoin:miter;stroke-width:0.8;"/>
   </g>
   <g id="legend_1">
    <g id="patch_7">
     <path d="M 240.87 302.584 
L 407.72 302.584 
Q 409.72 302.584 409.72 300.584 
L 409.72 286.905875 
Q 409.72 284.905875 407.72 284.905875 
L 240.87 284.905875 
Q 238.87 284.905875 238.87 286.905875 
L 238.87 300.584 
Q 238.87 302.584 240.87 302.584 
z
" style="fill:#ffffff;opacity:0.8;stroke:#cccccc;stroke-linejoin:miter;"/>
    </g>
    <g id="line2d_15">
     <path d="M 242.87 293.004312 
L 262.87 293.004312 
" style="fill:none;stroke:#ff8c00;stroke-linecap:square;stroke-width:2;"/>
    </g>
    <g id="line2d_16"/>
    <g id="text_15">
     <!-- ROC curve (AUC = 0.8299) -->
     <defs>
      <path d="M 44.390625 34.1875 
Q 47.5625 33.109375 50.5625 29.59375 
Q 53.5625 26.078125 56.59375 19.921875 
L 66.609375 0 
L 56 0 
L 46.6875 18.703125 
Q 43.0625 26.03125 39.671875 28.421875 
Q 36.28125 30.8125 30.421875 30.8125 
L 19.671875 30.8125 
L 19.671875 0 
L 9.8125 0 
L 9.8125 72.90625 
L 32.078125 72.90625 
Q 44.578125 72.90625 50.734375 67.671875 
Q 56.890625 62.453125 56.890625 51.90625 
Q 56.890625 45.015625 53.6875 40.46875 
Q 50.484375 35.9375 44.390625 34.1875 
z
M 19.671875 64.796875 
L 19.671875 38.921875 
L 32.078125 38.921875 
Q 39.203125 38.921875 42.84375 42.21875 
Q 46.484375 45.515625 46.484375 51.90625 
Q 46.484375 58.296875 42.84375 61.546875 
Q 39.203125 64.796875 32.078125 64.796875 
z
" id="DejaVuSans-82"/>
      <path d="M 39.40625 66.21875 
Q 28.65625 66.21875 22.328125 58.203125 
Q 16.015625 50.203125 16.015625 36.375 
Q 16.015625 22.609375 22.328125 14.59375 
Q 28.65625 6.59375 39.40625 6.59375 
Q 50.140625 6.59375 56.421875 14.59375 
Q 62.703125 22.609375 62.703125 36.375 
Q 62.703125 50.203125 56.421875 58.203125 
Q 50.140625 66.21875 39.40625 66.21875 
z
M 39.40625 74.21875 
Q 54.734375 74.21875 63.90625 63.9375 
Q 73.09375 53.65625 73.09375 36.375 
Q 73.09375 19.140625 63.90625 8.859375 
Q 54.734375 -1.421875 39.40625 -1.421875 
Q 24.03125 -1.421875 14.8125 8.828125 
Q 5.609375 19.09375 5.609375 36.375 
Q 5.609375 53.65625 14.8125 63.9375 
Q 24.03125 74.21875 39.40625 74.21875 
z
" id="DejaVuSans-79"/>
      <path d="M 64.40625 67.28125 
L 64.40625 56.890625 
Q 59.421875 61.53125 53.78125 63.8125 
Q 48.140625 66.109375 41.796875 66.109375 
Q 29.296875 66.109375 22.65625 58.46875 
Q 16.015625 50.828125 16.015625 36.375 
Q 16.015625 21.96875 22.65625 14.328125 
Q 29.296875 6.6875 41.796875 6.6875 
Q 48.140625 6.6875 53.78125 8.984375 
Q 59.421875 11.28125 64.40625 15.921875 
L 64.40625 5.609375 
Q 59.234375 2.09375 53.4375 0.328125 
Q 47.65625 -1.421875 41.21875 -1.421875 
Q 24.65625 -1.421875 15.125 8.703125 
Q 5.609375 18.84375 5.609375 36.375 
Q 5.609375 53.953125 15.125 64.078125 
Q 24.65625 74.21875 41.21875 74.21875 
Q 47.75 74.21875 53.53125 72.484375 
Q 59.328125 70.75 64.40625 67.28125 
z
" id="DejaVuSans-67"/>
      <path id="DejaVuSans-32"/>
      <path d="M 48.78125 52.59375 
L 48.78125 44.1875 
Q 44.96875 46.296875 41.140625 47.34375 
Q 37.3125 48.390625 33.40625 48.390625 
Q 24.65625 48.390625 19.8125 42.84375 
Q 14.984375 37.3125 14.984375 27.296875 
Q 14.984375 17.28125 19.8125 11.734375 
Q 24.65625 6.203125 33.40625 6.203125 
Q 37.3125 6.203125 41.140625 7.25 
Q 44.96875 8.296875 48.78125 10.40625 
L 48.78125 2.09375 
Q 45.015625 0.34375 40.984375 -0.53125 
Q 36.96875 -1.421875 32.421875 -1.421875 
Q 20.0625 -1.421875 12.78125 6.34375 
Q 5.515625 14.109375 5.515625 27.296875 
Q 5.515625 40.671875 12.859375 48.328125 
Q 20.21875 56 33.015625 56 
Q 37.15625 56 41.109375 55.140625 
Q 45.0625 54.296875 48.78125 52.59375 
z
" id="DejaVuSans-99"/>
      <path d="M 8.5 21.578125 
L 8.5 54.6875 
L 17.484375 54.6875 
L 17.484375 21.921875 
Q 17.484375 14.15625 20.5 10.265625 
Q 23.53125 6.390625 29.59375 6.390625 
Q 36.859375 6.390625 41.078125 11.03125 
Q 45.3125 15.671875 45.3125 23.6875 
L 45.3125 54.6875 
L 54.296875 54.6875 
L 54.296875 0 
L 45.3125 0 
L 45.3125 8.40625 
Q 42.046875 3.421875 37.71875 1 
Q 33.40625 -1.421875 27.6875 -1.421875 
Q 18.265625 -1.421875 13.375 4.4375 
Q 8.5 10.296875 8.5 21.578125 
z
M 31.109375 56 
z
" id="DejaVuSans-117"/>
      <path d="M 41.109375 46.296875 
Q 39.59375 47.171875 37.8125 47.578125 
Q 36.03125 48 33.890625 48 
Q 26.265625 48 22.1875 43.046875 
Q 18.109375 38.09375 18.109375 28.8125 
L 18.109375 0 
L 9.078125 0 
L 9.078125 54.6875 
L 18.109375 54.6875 
L 18.109375 46.1875 
Q 20.953125 51.171875 25.484375 53.578125 
Q 30.03125 56 36.53125 56 
Q 37.453125 56 38.578125 55.875 
Q 39.703125 55.765625 41.0625 55.515625 
z
" id="DejaVuSans-114"/>
      <path d="M 2.984375 54.6875 
L 12.5 54.6875 
L 29.59375 8.796875 
L 46.6875 54.6875 
L 56.203125 54.6875 
L 35.6875 0 
L 23.484375 0 
z
" id="DejaVuSans-118"/>
      <path d="M 56.203125 29.59375 
L 56.203125 25.203125 
L 14.890625 25.203125 
Q 15.484375 15.921875 20.484375 11.0625 
Q 25.484375 6.203125 34.421875 6.203125 
Q 39.59375 6.203125 44.453125 7.46875 
Q 49.3125 8.734375 54.109375 11.28125 
L 54.109375 2.78125 
Q 49.265625 0.734375 44.1875 -0.34375 
Q 39.109375 -1.421875 33.890625 -1.421875 
Q 20.796875 -1.421875 13.15625 6.1875 
Q 5.515625 13.8125 5.515625 26.8125 
Q 5.515625 40.234375 12.765625 48.109375 
Q 20.015625 56 32.328125 56 
Q 43.359375 56 49.78125 48.890625 
Q 56.203125 41.796875 56.203125 29.59375 
z
M 47.21875 32.234375 
Q 47.125 39.59375 43.09375 43.984375 
Q 39.0625 48.390625 32.421875 48.390625 
Q 24.90625 48.390625 20.390625 44.140625 
Q 15.875 39.890625 15.1875 32.171875 
z
" id="DejaVuSans-101"/>
      <path d="M 31 75.875 
Q 24.46875 64.65625 21.28125 53.65625 
Q 18.109375 42.671875 18.109375 31.390625 
Q 18.109375 20.125 21.3125 9.0625 
Q 24.515625 -2 31 -13.1875 
L 23.1875 -13.1875 
Q 15.875 -1.703125 12.234375 9.375 
Q 8.59375 20.453125 8.59375 31.390625 
Q 8.59375 42.28125 12.203125 53.3125 
Q 15.828125 64.359375 23.1875 75.875 
z
" id="DejaVuSans-40"/>
      <path d="M 34.1875 63.1875 
L 20.796875 26.90625 
L 47.609375 26.90625 
z
M 28.609375 72.90625 
L 39.796875 72.90625 
L 67.578125 0 
L 57.328125 0 
L 50.6875 18.703125 
L 17.828125 18.703125 
L 11.1875 0 
L 0.78125 0 
z
" id="DejaVuSans-65"/>
      <path d="M 8.6875 72.90625 
L 18.609375 72.90625 
L 18.609375 28.609375 
Q 18.609375 16.890625 22.84375 11.734375 
Q 27.09375 6.59375 36.625 6.59375 
Q 46.09375 6.59375 50.34375 11.734375 
Q 54.59375 16.890625 54.59375 28.609375 
L 54.59375 72.90625 
L 64.5 72.90625 
L 64.5 27.390625 
Q 64.5 13.140625 57.4375 5.859375 
Q 50.390625 -1.421875 36.625 -1.421875 
Q 22.796875 -1.421875 15.734375 5.859375 
Q 8.6875 13.140625 8.6875 27.390625 
z
" id="DejaVuSans-85"/>
      <path d="M 10.59375 45.40625 
L 73.1875 45.40625 
L 73.1875 37.203125 
L 10.59375 37.203125 
z
M 10.59375 25.484375 
L 73.1875 25.484375 
L 73.1875 17.1875 
L 10.59375 17.1875 
z
" id="DejaVuSans-61"/>
      <path d="M 10.984375 1.515625 
L 10.984375 10.5 
Q 14.703125 8.734375 18.5 7.8125 
Q 22.3125 6.890625 25.984375 6.890625 
Q 35.75 6.890625 40.890625 13.453125 
Q 46.046875 20.015625 46.78125 33.40625 
Q 43.953125 29.203125 39.59375 26.953125 
Q 35.25 24.703125 29.984375 24.703125 
Q 19.046875 24.703125 12.671875 31.3125 
Q 6.296875 37.9375 6.296875 49.421875 
Q 6.296875 60.640625 12.9375 67.421875 
Q 19.578125 74.21875 30.609375 74.21875 
Q 43.265625 74.21875 49.921875 64.515625 
Q 56.59375 54.828125 56.59375 36.375 
Q 56.59375 19.140625 48.40625 8.859375 
Q 40.234375 -1.421875 26.421875 -1.421875 
Q 22.703125 -1.421875 18.890625 -0.6875 
Q 15.09375 0.046875 10.984375 1.515625 
z
M 30.609375 32.421875 
Q 37.25 32.421875 41.125 36.953125 
Q 45.015625 41.5 45.015625 49.421875 
Q 45.015625 57.28125 41.125 61.84375 
Q 37.25 66.40625 30.609375 66.40625 
Q 23.96875 66.40625 20.09375 61.84375 
Q 16.21875 57.28125 16.21875 49.421875 
Q 16.21875 41.5 20.09375 36.953125 
Q 23.96875 32.421875 30.609375 32.421875 
z
" id="DejaVuSans-57"/>
      <path d="M 8.015625 75.875 
L 15.828125 75.875 
Q 23.140625 64.359375 26.78125 53.3125 
Q 30.421875 42.28125 30.421875 31.390625 
Q 30.421875 20.453125 26.78125 9.375 
Q 23.140625 -1.703125 15.828125 -13.1875 
L 8.015625 -13.1875 
Q 14.5 -2 17.703125 9.0625 
Q 20.90625 20.125 20.90625 31.390625 
Q 20.90625 42.671875 17.703125 53.65625 
Q 14.5 64.65625 8.015625 75.875 
z
" id="DejaVuSans-41"/>
     </defs>
     <g transform="translate(270.87 296.504312)scale(0.1 -0.1)">
      <use xlink:href="#DejaVuSans-82"/>
      <use x="69.482422" xlink:href="#DejaVuSans-79"/>
      <use x="148.193359" xlink:href="#DejaVuSans-67"/>
      <use x="218.017578" xlink:href="#DejaVuSans-32"/>
      <use x="249.804688" xlink:href="#DejaVuSans-99"/>
      <use x="304.785156" xlink:href="#DejaVuSans-117"/>
      <use x="368.164062" xlink:href="#DejaVuSans-114"/>
      <use x="409.277344" xlink:href="#DejaVuSans-118"/>
      <use x="468.457031" xlink:href="#DejaVuSans-101"/>
      <use x="529.980469" xlink:href="#DejaVuSans-32"/>
      <use x="561.767578" xlink:href="#DejaVuSans-40"/>
      <use x="600.78125" xlink:href="#DejaVuSans-65"/>
      <use x="669.189453" xlink:href="#DejaVuSans-85"/>
      <use x="742.382812" xlink:href="#DejaVuSans-67"/>
      <use x="812.207031" xlink:href="#DejaVuSans-32"/>
      <use x="843.994141" xlink:href="#DejaVuSans-61"/>
      <use x="927.783203" xlink:href="#DejaVuSans-32"/>
      <use x="959.570312" xlink:href="#DejaVuSans-48"/>
      <use x="1023.193359" xlink:href="#DejaVuSans-46"/>
      <use x="1054.980469" xlink:href="#DejaVuSans-56"/>
      <use x="1118.603516" xlink:href="#DejaVuSans-50"/>
      <use x="1182.226562" xlink:href="#DejaVuSans-57"/>
      <use x="1245.849609" xlink:href="#DejaVuSans-57"/>
      <use x="1309.472656" xlink:href="#DejaVuSans-41"/>
     </g>
    </g>
   </g>
  </g>
 </g>
 <defs>
  <clipPath id="pad78435d0f">
   <rect height="266.112" width="357.12" x="57.6" y="41.472"/>
  </clipPath>
 </defs>
</svg>
